<svg xmlns="http://www.w3.org/2000/svg" xmlns:xlink="http://www.w3.org/1999/xlink" version="1.1" id="Layer_1" x="0px" y="0px" viewBox="0 0 458.139 458.139" style="enable-background:new 0 0 458.139 458.139;" xml:space="preserve">
<g>
	<g>
		<g>
			<path d="M428.139,13.979H138.495c-16.569,0-30,13.431-30,30v80.993c5.016,0,209.286,0,211.149,0c33.084,0,60,26.916,60,60     c0,34.379,0,39.133,0,72.4h48.495c16.568,0,30-13.431,30-30V43.979C458.139,27.411,444.708,13.979,428.139,13.979z" fill="#ffffff"/>
			<path d="M319.644,154.968H30c-16.569,0-30,13.431-30,30v183.393c0,16.569,13.431,30,30,30h92.333l29.531,35.11     c5.7,6.777,14.103,10.689,22.959,10.689s17.258-3.912,22.959-10.689l29.531-35.11h92.333c16.569,0,30-13.431,30-30V184.968     C349.644,168.4,336.212,154.968,319.644,154.968z M148.324,322.184H70.161c-8.284,0-15-6.716-15-15s6.716-15,15-15h78.164     c8.284,0,15,6.716,15,15C163.324,315.469,156.608,322.184,148.324,322.184z M271.511,260.15H70.161c-8.284,0-15-6.716-15-15     s6.716-15,15-15h201.351c8.284,0,15,6.716,15,15C286.511,253.434,279.796,260.15,271.511,260.15z" fill="#ffffff"/>
		</g>
	</g>
</g>
<g>
</g>
<g>
</g>
<g>
</g>
<g>
</g>
<g>
</g>
<g>
</g>
<g>
</g>
<g>
</g>
<g>
</g>
<g>
</g>
<g>
</g>
<g>
</g>
<g>
</g>
<g>
</g>
<g>
</g>
</svg>
