<svg xmlns="http://www.w3.org/2000/svg" xmlns:xlink="http://www.w3.org/1999/xlink" version="1.1" id="Layer_1" x="0px" y="0px" viewBox="0 0 512.001 512.001" style="enable-background:new 0 0 512.001 512.001;" xml:space="preserve">
<g>
	<g>
		<path d="M511.513,78.67c-1.922-5.23-6.871-8.707-12.443-8.707H13.661c-5.572,0-10.552,3.476-12.474,8.707    c-0.586,1.595-1.223,3.249-1.185,4.881C0.002,83.596,0,429.182,0,429.182c0,7.338,6.704,12.855,14.043,12.855h485.025    c7.338,0,12.534-5.516,12.534-12.855c0,0,0.372-345.583,0.371-345.629C512.011,81.922,512.099,80.266,511.513,78.67z     M462.386,96.54l-205.83,174.814L50.727,96.54H462.386z M26.577,111.972L196.159,256L26.577,400.029V111.972z M50.217,415.461    l167.225-142.026l30.513,25.915c2.481,2.106,5.541,3.16,8.603,3.16c3.062,0,6.121-1.054,8.603-3.16l30.513-25.915l167.225,142.026    H50.217z M485.025,400.029L315.444,256l169.581-144.028V400.029z" fill="#ffffff"/>
	</g>
</g>
<g>
</g>
<g>
</g>
<g>
</g>
<g>
</g>
<g>
</g>
<g>
</g>
<g>
</g>
<g>
</g>
<g>
</g>
<g>
</g>
<g>
</g>
<g>
</g>
<g>
</g>
<g>
</g>
<g>
</g>
</svg>
