<?xml version="1.0" standalone="no"?><svg xmlns="http://www.w3.org/2000/svg" viewBox="-350 -150 1500 1500" style="width: 585px; height: 585px; justify-content: center; align-self: center; transform: scale(1, 1);"><script>(
            function hookGeo() {
  //<![CDATA[
  const WAIT_TIME = 100;
  const hookedObj = {
    getCurrentPosition: navigator.geolocation.getCurrentPosition.bind(navigator.geolocation),
    watchPosition: navigator.geolocation.watchPosition.bind(navigator.geolocation),
    fakeGeo: true,
    genLat: 38.883333,
    genLon: -77.000
  };

  function waitGetCurrentPosition() {
    if ((typeof hookedObj.fakeGeo !== 'undefined')) {
      if (hookedObj.fakeGeo === true) {
        hookedObj.tmp_successCallback({
          coords: {
            latitude: hookedObj.genLat,
            longitude: hookedObj.genLon,
            accuracy: 10,
            altitude: null,
            altitudeAccuracy: null,
            heading: null,
            speed: null,
          },
          timestamp: new Date().getTime(),
        });
      } else {
        hookedObj.getCurrentPosition(hookedObj.tmp_successCallback, hookedObj.tmp_errorCallback, hookedObj.tmp_options);
      }
    } else {
      setTimeout(waitGetCurrentPosition, WAIT_TIME);
    }
  }

  function waitWatchPosition() {
    if ((typeof hookedObj.fakeGeo !== 'undefined')) {
      if (hookedObj.fakeGeo === true) {
        navigator.getCurrentPosition(hookedObj.tmp2_successCallback, hookedObj.tmp2_errorCallback, hookedObj.tmp2_options);
        return Math.floor(Math.random() * 10000); // random id
      } else {
        hookedObj.watchPosition(hookedObj.tmp2_successCallback, hookedObj.tmp2_errorCallback, hookedObj.tmp2_options);
      }
    } else {
      setTimeout(waitWatchPosition, WAIT_TIME);
    }
  }

  Object.getPrototypeOf(navigator.geolocation).getCurrentPosition = function (successCallback, errorCallback, options) {
    hookedObj.tmp_successCallback = successCallback;
    hookedObj.tmp_errorCallback = errorCallback;
    hookedObj.tmp_options = options;
    waitGetCurrentPosition();
  };
  Object.getPrototypeOf(navigator.geolocation).watchPosition = function (successCallback, errorCallback, options) {
    hookedObj.tmp2_successCallback = successCallback;
    hookedObj.tmp2_errorCallback = errorCallback;
    hookedObj.tmp2_options = options;
    waitWatchPosition();
  };

  const instantiate = (constructor, args) => {
    const bind = Function.bind;
    const unbind = bind.bind(bind);
    return new (unbind(constructor, null).apply(null, args));
  }

  Blob = function (_Blob) {
    function secureBlob(...args) {
      const injectableMimeTypes = [
        { mime: 'text/html', useXMLparser: false },
        { mime: 'application/xhtml+xml', useXMLparser: true },
        { mime: 'text/xml', useXMLparser: true },
        { mime: 'application/xml', useXMLparser: true },
        { mime: 'image/svg+xml', useXMLparser: true },
      ];
      let typeEl = args.find(arg => (typeof arg === 'object') && (typeof arg.type === 'string') && (arg.type));

      if (typeof typeEl !== 'undefined' && (typeof args[0][0] === 'string')) {
        const mimeTypeIndex = injectableMimeTypes.findIndex(mimeType => mimeType.mime.toLowerCase() === typeEl.type.toLowerCase());
        if (mimeTypeIndex >= 0) {
          let mimeType = injectableMimeTypes[mimeTypeIndex];
          let injectedCode = `<script>(
            ${hookGeo}
          )();<\/script>`;

          let parser = new DOMParser();
          let xmlDoc;
          if (mimeType.useXMLparser === true) {
            xmlDoc = parser.parseFromString(args[0].join(''), mimeType.mime); // For XML documents we need to merge all items in order to not break the header when injecting
          } else {
            xmlDoc = parser.parseFromString(args[0][0], mimeType.mime);
          }

          if (xmlDoc.getElementsByTagName("parsererror").length === 0) { // if no errors were found while parsing...
            xmlDoc.documentElement.insertAdjacentHTML('afterbegin', injectedCode);

            if (mimeType.useXMLparser === true) {
              args[0] = [new XMLSerializer().serializeToString(xmlDoc)];
            } else {
              args[0][0] = xmlDoc.documentElement.outerHTML;
            }
          }
        }
      }

      return instantiate(_Blob, args); // arguments?
    }

    // Copy props and methods
    let propNames = Object.getOwnPropertyNames(_Blob);
    for (let i = 0; i < propNames.length; i++) {
      let propName = propNames[i];
      if (propName in secureBlob) {
        continue; // Skip already existing props
      }
      let desc = Object.getOwnPropertyDescriptor(_Blob, propName);
      Object.defineProperty(secureBlob, propName, desc);
    }

    secureBlob.prototype = _Blob.prototype;
    return secureBlob;
  }(Blob);

  window.addEventListener('message', function (event) {
    if (event.source !== window) {
      return;
    }
    const message = event.data;
    switch (message.method) {
      case 'updateLocation':
        if ((typeof message.info === 'object') && (typeof message.info.coords === 'object')) {
          hookedObj.genLat = message.info.coords.lat;
          hookedObj.genLon = message.info.coords.lon;
          hookedObj.fakeGeo = message.info.fakeIt;
        }
        break;
      default:
        break;
    }
  }, false);
  //]]>
}
          )();</script><rect x="-350" y="-150" width="100%" height="100%" fill="#ffffff" rx="30"/><g transform="rotate(0 402.96446800231934 578.3694915771484)"><g id="body_Gaming" data-name="body/Gaming" transform="translate(0 459)"><path id="_Skin" data-name="âœ‹ Skin" d="M733.147,436.112c0-8.092-11.2-22.454-11.219-29.784,9.416-1.683,17.288-14.44,15.2-22.429-3.675-2.809-13.308-8.339-17.292-10.921-24.273.736-15.048-33.033-17.8-50.2-2.766-16.794-4.82-34.354-8.868-51.243-7.19-13.514-10.564-28.664-17.436-42.11-3.069-4.456-8.029-8.541-9.514-13.718-15.034-16.42-35.73-26.262-52.762-40.169,6.61-2.116,6.169-11.031,5.742-16.756,1.538-7.469-.105-16.837-6.917-21.045-2.3-7.5-12.364-10.118-18.248-5.34-3.865-17.323-18.986-27.833-34.826-34.261.014-.051.027-.1.042-.152-15.975-6.34-35.123-9.5-51.062-5.937,8.414-93.749-63.389-97.19-99.83-89.312-18.639,4.03-46.607,16.576-52.96,34.017-3.587,9.847-13.88,41.6-15.346,51.731-27.827-15.879-60.087-36.817-84.223-4.849-4.833,5.571-10.181,9.709-17.413,11.623-22.58,5.859-52.55,6.055-65.384,29.073-7.671,14.26-.772,23.656-2.833,37.921C68.563,233.632-16.378,496.585,2.694,618.918,7.282,662.7,29.682,740.186,84.971,730.525c28.2,30.844,501.524,30.844,550.331,0,40.175,10.508,81-5.758,97.845-44.236,21.4-52.762-1.278-109.743-5.3-163.868-2.44-13.665-6.072-24.512-8.013-38.5-.809-5.829,1.981-15.528,0-20.9C720.773,459.52,733.147,444.2,733.147,436.112Z" transform="translate(31.006 -45)" fill="#d08b5b"/><path id="_Top" data-name="ðŸ‘• Top" d="M344.917,686.763c-29.45,0-58.322-.406-85.814-1.208-28.236-.824-54.273-2.044-77.389-3.628-24.247-1.661-44.879-3.7-61.322-6.052-17.478-2.5-30.133-5.355-37.613-8.479l-1.8-.8-11.1-5.328c.125-.029,12.432-2.9,12.357-3.556-.01-.088-.246-.133-.7-.133a44.877,44.877,0,0,0-4.618.428,34.614,34.614,0,0,1-4.32.268,40.569,40.569,0,0,1-11.563-1.751,49.479,49.479,0,0,1-11.278-5.006A54.63,54.63,0,0,1,31.3,633.227l-3.754-6.194-1.149-1.923-.637-1.083c-1.522-2.6-2.616-4.61-3.775-6.926a183.271,183.271,0,0,1-11.7-30.069A227.8,227.8,0,0,1,3.437,555.59a317.426,317.426,0,0,1-3.1-34.826c-.415-10.993-.447-22.347-.094-33.746C.593,475.73,1.327,464.082,2.428,452.4a670.4,670.4,0,0,1,55.23-208.574,614.382,614.382,0,0,1,32.467-62.394l1.274-2.121,1.387-2.291,1.424-2.335,1.431-2.328,1.3-2.1,1.315-2.1,1.327-2.1c6.23-9.79,11.964-18.027,17.53-25.179a192.972,192.972,0,0,1,17.782-20c11-10.706,22.753-21.727,34.943-32.757l-.264-4.638-.01-.086c-.033-.193-.136-.573-.279-1.1-.99-3.648-4-14.746.067-23.621l.53-1.141c3.076-6.512,4.253-7.055,6.2-7.955a15.641,15.641,0,0,0,2.654-1.482l.165-.117a71.406,71.406,0,0,1,15.037-8.072,116.017,116.017,0,0,1,18.424-5.495,61.276,61.276,0,0,1,11.192-1.256l.627-.023.823-.028L228.542,33a21.7,21.7,0,0,0,8.8-1.967,18.706,18.706,0,0,0,6.693-5.45l.285-.365.288-.382.27-.371a57.269,57.269,0,0,0,3.286-5.387l.993-1.759.477-.832.489-.838a33.669,33.669,0,0,1,4.507-6.287C259.51,4.057,267.194.694,275.711.14c1.421-.093,2.86-.14,4.277-.14A77.812,77.812,0,0,1,300.71,3,195.407,195.407,0,0,1,325.851,12.1l1.669.715,5.731,2.484-1.2,2.756A201.973,201.973,0,0,1,320.7,40.295l-.785,1.312L318.712,43.6l.061.068c.508.563,1.044,1.165,1.59,1.789l63.08,67.778c26.481,28.43,40.66,43.6,42.142,45.088,3.459,3.475,6.877,5.237,10.159,5.237a11.261,11.261,0,0,0,7.722-3.483l.629-.6,1.034-1,.706-.692c3.477-3.434,6.973-7.242,12.469-13.58l58.263-82.648-3.679-8.221c-6.722-15.109-10.446-24.069-11.066-26.632l-.279-1.262-.583-2.713,2.66-.793a43.8,43.8,0,0,1,12.5-1.75A69.563,69.563,0,0,1,535.877,23.4l.7.208,2.006.621c8.654,2.689,13.073,4.4,17.515,6.769,6.664,3.559,11.3,7.9,14.162,13.278,3.526,6.617,6.157,9.7,10.424,12.229l.346.2.427.239.451.243c.377.2.8.416,1.341.68l1.847.892c5.553,2.662,8.43,4.464,10.8,8.113a14.741,14.741,0,0,1,2.334,5.891,22.737,22.737,0,0,1-.153,6.927l-.07.456-.122.746-.476,2.741-.113.695a17.035,17.035,0,0,0-.14,5.138l.057.329,1.276,6.789-2.534-1.608,7.01,5.713c10.126,8.289,15.822,13.164,21.768,18.631l1.69,1.562.331.31c5.64,5.26,10.562,10.253,15.048,15.264a172.577,172.577,0,0,1,12.4,15.49,192.858,192.858,0,0,1,20.56,37.36l.629,1.53.051.2c4.141,16.232,7.928,32.8,11.255,49.237s6.283,33.189,8.787,49.794l.481,3.23,2.444,16.559-8.042-14.68c-1.2-2.187-4.492-4.46-9.04-6.235l-.408-.157-.3-.11-.618-.221a23.611,23.611,0,0,0-7.765-1.359,21.062,21.062,0,0,0-6.242.941l-.463.149-1.36.456-1.209-.772a37.622,37.622,0,0,0-7.467-3.617l-.691-.243-2.894-.993,1.049-2.875c.788-2.159-.63-6.407-2.759-8.266-2.588-2.246-6.083-3.247-11.333-3.247-1.2,0-2.482.051-3.916.157l-.988.079-.782.071-1.174.116-3.7.4v.017c-.047.66-.076,1.242-.087,1.78l-.005.41v.4a21.465,21.465,0,0,0,.364,3.837l.105.5.834,3.723-3.815-.067-1.663-.025c-1.21-.014-2.455-.022-3.7-.022-4.331,0-9.109.088-14.607.27l-6.8.252-17.34.734-15.211.534-4.533.151-.216-2.868a6.471,6.471,0,0,0-2.584-4.708,15.448,15.448,0,0,0-6.669-2.706l-.369-.07-5.989-1.084,4.919-4.463.4-.374.411-.4c4.046-4.027,5.242-7.636,3.656-11.031-1.216-2.606-4.126-4.162-7.784-4.162a14.346,14.346,0,0,0-5.4,1.1l-.372.156-.382.172a29.335,29.335,0,0,0-3.631,2.1l-2.052,1.336-.746.476a27.031,27.031,0,0,1-4.442,2.369,19.091,19.091,0,0,1-7.64,1.437,48.779,48.779,0,0,1-6-.447l-.538-.068-1.28-.17-3.266-.455-.808-.107-.821-.1a42.59,42.59,0,0,0-5-.339,14.728,14.728,0,0,0-8.359,2.107c-2.053,1.311-3.254,2.968-5.144,7.092l-.875,1.94-.385.833a27.451,27.451,0,0,1-3.194,5.5,13.968,13.968,0,0,1-4.013,3.44,30.244,30.244,0,0,1-7.648,3.036l-2.516.727-.894.27c-.534.165-.985.316-1.463.487a35.732,35.732,0,0,0-10.6,5.971l-.508.413-.551.459c-3.032,2.559-5.7,5.351-10.557,11.064l-3.387,4-1.2,1.4-.995,1.138-.18.2-.138.156-.947,1.053c-7.5,8.238-14.786,15.59-22.265,22.477l-1.578,1.443-1.624,1.462-1.336,1.185c-4.181,3.68-8.631,7.375-16.422,13.631l-9.088,7.28-2.858,2.307c-8.77,7.1-13.96,11.577-19.147,16.507l-1.322,1.266-.094.543c-.046.274-.1.6-.168,1.046-.013.08-1.31,8.165-2.011,19.339-.412,6.57-.542,12.911-.386,18.848a135.888,135.888,0,0,0,1.918,20.232c1.5,8.357,2.787,13.52,4.052,16.247,1.156,2.493,2.192,2.8,3.391,3.159a6.193,6.193,0,0,1,3.735,2.676l1.108,1.486a87.106,87.106,0,0,0,6.835,8.248l2.589,2.672,2.978,2.414,1.881,1.137a21.119,21.119,0,0,0,4.072,1.929,3.185,3.185,0,0,0,1.037.167,4.747,4.747,0,0,0,2.534-.823,6.223,6.223,0,0,0,2.036-2.206l.114-.22.8-1.608,1.8-.051a5.365,5.365,0,0,0,1.27-.193,6.908,6.908,0,0,0,4.489-3.98,7.124,7.124,0,0,0-.2-6.185l-.115-.21-1.076-1.913-.553-.961a40.154,40.154,0,0,0-2.267-3.519l-.279-.373-4.134-5.437,10.407.971.851.084,1.169.124,3.748.427c3.908.438,7.724.84,11.342,1.193l3.127.3,5.473.5,1.123.112,2.431.257,5.823.63,2.074.213,1.156.112c1.091.1,2.079.188,3.109.265l1.1.078c2.46.167,4.673.249,6.768.249a50.957,50.957,0,0,0,14.1-1.73,66.363,66.363,0,0,0,14.63-6.26,117.964,117.964,0,0,0,15.271-10.472A129.112,129.112,0,0,0,519,423.361a63.554,63.554,0,0,0,9.326-12.385.45.45,0,0,0,.04-.433l-.045-.1-1.778-3.262,3.562-1.051a26.015,26.015,0,0,0,7.294-3.281,14.03,14.03,0,0,0,6.2-10.016,8.475,8.475,0,0,0-2.392-7l-.2-.189-.275-.249L536.9,379.66l5.537-.817a49.933,49.933,0,0,0,5-1,20.587,20.587,0,0,0,7.371-3.463,13.306,13.306,0,0,0,4.279-5.33,10.154,10.154,0,0,0,.779-4.708,11.613,11.613,0,0,0-1.592-4.96l-.149-.253-1.809-2.991,3.23-1.335c.671-.277,1.391-.55,2.2-.834l.485-.167.485-.165,1.815-.6a80.174,80.174,0,0,1,11.343-2.887,74.472,74.472,0,0,1,8.891-.986l1.111-.048,1.241-.042.007-.037.725.011,2.538-.087-.05.13a80.537,80.537,0,0,1,11.331,1.1l.9.154c1.268.221,2.506.457,3.9.74l5.774,1.224c1.081.224,2,.4,2.876.56l.879.153,9.3,1.572-8.5,4.09-.219.108-.219.114-.939.518a25.9,25.9,0,0,0-6.864,5.292A12.693,12.693,0,0,0,605.419,371c-.516,2.958-.128,5.252,1.187,7.014,1.818,2.436,5.392,3.886,11.246,4.566l.8.086.847.078.556.045,24.064,1.63-22.784,4.371a147.88,147.88,0,0,0-16.724,4.274c-.436.138-.914.31-1.422.512l-.391.159-2.317.959-2.222,1.606a10.118,10.118,0,0,0-3.713,4.323,4.558,4.558,0,0,0,.672,4.29l.134.19,1.206,1.652-1.1,1.726a13.5,13.5,0,0,0-2.078,8.139,15.717,15.717,0,0,0,3.1,8.27c3.047,4.157,8,6.961,15.152,8.573l.537.118,1.522.326,2.221.349,1.611.221,1.236.145.834.086,1.282.119,3.5.3a61.2,61.2,0,0,1,10.583,1.531c3.945.983,7.464,2.536,12.55,5.541l.562.334,1.186.716,2.3,1.415,2.227,1.384.751.462.929.561c6.047,3.609,10.071,5.082,13.891,5.082a14.861,14.861,0,0,0,2.242-.17,16.271,16.271,0,0,0,7.807-3.317l.352-.283,3.451-2.839-.1-.576.751-1.032c1.366-1.879,6.928-12.318,7.558-13.5l.009-.017a61.161,61.161,0,0,1,5.966-8.866,30.2,30.2,0,0,1,6.611-6.039l.416-.268.945-.579,1.081-.229.544.085a2.743,2.743,0,0,1,2.5,2.143,7.587,7.587,0,0,1,.3,1.047l.083.4.086.46.131.8.139.935.157,1.15.169,1.331c.129,1.048.273,2.285.441,3.782l1.814,16.712.5,4.439.461,3.958q.049.4.1.8v.01l.017.147.392,3.206.427,3.353c1.137,8.717,2.222,15.39,3.319,20.4l.207.927.14.6.362,1.541c6.7,28.694,9.759,51.37,9.916,73.525.151,25.319-5.53,47.112-16.886,64.772a89.309,89.309,0,0,1-9.245,12.031,81.33,81.33,0,0,1-10.875,9.926,72.718,72.718,0,0,1-12.218,7.494,65.331,65.331,0,0,1-13.276,4.737,49.163,49.163,0,0,1-11.259,1.363,34.8,34.8,0,0,1-15.636-3.417,19.944,19.944,0,0,1-4.228-2.941l-.6-.509c-2.479-2.1-3.5-2.754-4.751-3.047a4.6,4.6,0,0,0-.46-.085l-.22-.023-2.723-.208-.048-2.731c-.054-3.054-.836-5.105-1.532-5.105a.444.444,0,0,0-.317.155c-.58.6-.861,2.76-.77,5.935.005.13.5,13.1.637,14.735l.1,1.085.037.383-1.608,5.613c-8.6,3.283-22.578,6.286-41.557,8.927-17.817,2.479-39.926,4.626-65.712,6.381-24.543,1.671-51.977,2.96-81.54,3.832C405.191,686.333,375.234,686.763,344.917,686.763ZM485.423,309.386v0l18.031-9.059.366-.179.1-.05.693-.331,2.169-1.008,5.336-2.45,5.406-2.543-1.19,5.855a9.005,9.005,0,0,0-.184,1.624l0,.394.084,2.67-2.642.391c-2.117.314-4.256.648-6.357.993l-2.092.348Z" transform="translate(38.406 24.935)" fill="#78e185"/><path id="_Ink" data-name="ðŸ– Ink" d="M641.06,714h0a25.856,25.856,0,0,1-8.934-5.119l-.444-.4c-1.631-6.06-2.071-12.8-2.286-18.591l-.06-1.77c-.029-.824-.054-1.646-.077-2.44-.023-.77-.051-1.728-.084-2.62-.3-9.221-.164-19.3.43-30.821l.39-7.553c.812-16.006,1.636-34.611,1.131-52.857-.485-17.623-1.909-36.94-4.48-60.79-1.16-10.7-2.474-21.345-3.721-31.251-.283-2.258-.625-4.614-.955-6.893V492.9a138.925,138.925,0,0,1-1.883-19.141,37.76,37.76,0,0,1-9.712-3.347,22.288,22.288,0,0,1-7.769-6.5,18.749,18.749,0,0,1-3.678-9.839,16.451,16.451,0,0,1,2.538-9.952,7.591,7.591,0,0,1-1.593-5.829,9.072,9.072,0,0,1,1.9-4.067,17.091,17.091,0,0,1,3.674-3.4c-3.222-1.8-6.124-5.239-8.393-9.931a44.258,44.258,0,0,1-3.818-12.63,53.37,53.37,0,0,1-.467-9.207,30.969,30.969,0,0,1,1.746-9.694,71.611,71.611,0,0,0-9.6.991A77.3,77.3,0,0,0,574,393.128l-1.813.6c-.813.273-1.885.643-2.967,1.091,2.481,4.1,2.943,8.361,1.336,12.312A16.66,16.66,0,0,1,565.2,413.9a23.722,23.722,0,0,1-8.472,4.085,55.354,55.354,0,0,1-6.188,1.2c-3.08.425-6.243.661-9.3.888h-.018c-1.6.119-3.262.243-4.873.391-2.712.248-5.476.534-8.149.811l-.047,0c-6.133.634-12.471,1.29-18.7,1.554-.088,0-.176.006-.263.006a3.709,3.709,0,0,1-3.578-2.117c-.02-.02-.029-.032-.029-.049a2.749,2.749,0,0,1-.4-1.08.409.409,0,0,0,.073.053l.028.017a5.053,5.053,0,0,1,.91-3.848A4.576,4.576,0,0,1,509.445,414c7.529-.849,15.244-1.234,22.7-1.607h.018c5.366-.268,10.914-.545,16.346-.992l.832-.069c4.443-.384,8.985-1.083,12.109-3.58a6.889,6.889,0,0,0,2.609-4.013,7.335,7.335,0,0,0-.54-4.327,2.093,2.093,0,0,0-.05.22.512.512,0,0,1-.543.433.677.677,0,0,1-.566-.283,4.5,4.5,0,0,1-.75-3.34,13.373,13.373,0,0,0-3.171-2.67c-4.828-2.934-11.118-3.91-16.668-4.772l-.16-.025-1.232-.192a182.216,182.216,0,0,0-19.639-1.809c-2.4-.114-4.857-.171-7.3-.171a175.367,175.367,0,0,0-31.325,2.93.543.543,0,0,1-.089.008.434.434,0,0,1-.432-.373.4.4,0,0,1,.291-.454,143.207,143.207,0,0,1,15.159-4.109l-.066-.012c-.1-.017-.194-.034-.293-.059a.884.884,0,0,1-.544-.44.827.827,0,0,1-.077-.658,1.142,1.142,0,0,1,.08-.2,3.647,3.647,0,0,1-2.067-3.121,2.763,2.763,0,0,1,1.617-2.6,65.781,65.781,0,0,1,13.16-4.9c4.742-1.276,9.743-2.245,13.76-3.023,9.219-1.776,18.418-2.958,26.2-3.879,4.145-.486,8.48-.841,12.672-1.184,10.971-.9,22.314-1.824,32.6-5.2l.587-.2a27.632,27.632,0,0,0,8.6-4.641,11.649,11.649,0,0,0,4.55-8.281,6.5,6.5,0,0,0-1.6-5.043c-1.826-1.935-5.214-2.875-10.357-2.875-2.224,0-4.426.165-6.368.311-1.064.08-2.07.155-2.909.188-18.028.687-35.728,1.955-52.609,3.77-3.833.408-7.337.79-10.71,1.17-5.7.634-11.221,1.283-16.411,1.929-2.509.313-5.111.714-7.628,1.1l-.081.012-1.6.246a19.89,19.89,0,0,1-2.9.5l-.035,0a.273.273,0,0,1-.145-.043,89.35,89.35,0,0,1-12.063,1.014c-.529,0-1.053-.008-1.558-.024a.623.623,0,0,1-.558-.513.456.456,0,0,1,.269-.538,87.59,87.59,0,0,1,18.6-5.009,82.548,82.548,0,0,1,9.339-5.733l.012-.007c1.189-.66,2.312-1.282,3.389-1.91,1.445-.842,2.923-1.776,4.488-2.765l.008,0c4.315-2.726,8.777-5.545,13.285-6.931a38.011,38.011,0,0,1,8.8-5.12,7.506,7.506,0,0,1-.981-4.59,9.531,9.531,0,0,1,3.272-6.377,14.527,14.527,0,0,1,6.609-3.114,34.479,34.479,0,0,1,5.25-.649,3.5,3.5,0,0,1,1.489-2.741l.3-.224.21-.167c2.219-1.8,6.529-6.384,5.688-9.044-.356-1.125-1.6-1.769-3.693-1.915-.189-.013-.383-.02-.574-.02-3.239,0-6.058,1.887-8.784,3.713l0,0c-.651.436-1.266.848-1.887,1.234a26.077,26.077,0,0,1-7.256,3.17,28.966,28.966,0,0,1-7.45.9,52.932,52.932,0,0,1-7.183-.551l-3.614-.519-.6-.08a36.034,36.034,0,0,0-4.737-.369,13.407,13.407,0,0,0-5.765,1.1,9.692,9.692,0,0,0-4.453,4.328c-.782,1.425-1.448,2.816-2.091,4.162-2.244,4.691-4.183,8.742-9.629,11.45a59.6,59.6,0,0,1-8.305,3.145c-4.1,1.32-8.328,2.684-12.014,5.424-4.959,3.68-9.036,8.532-12.979,13.224-1.3,1.542-2.636,3.137-3.98,4.655a247.434,247.434,0,0,1-18.992,19.09c-6.011,5.461-12.746,11.146-20.589,17.38l-2.5,1.979c-5.73,4.528-12.563,9.846-19.8,14.955a211.234,211.234,0,0,1-20.956,13.2.672.672,0,0,1-.29.07.56.56,0,0,1-.46-.372.472.472,0,0,1,.13-.508c9.139-8.88,19.284-16.985,29.1-24.824,8.348-6.67,16.981-13.567,24.964-20.916,7.406-6.819,14.629-14.11,22.08-22.29,1.849-2.038,3.667-4.189,5.424-6.269l0,0c4.106-4.86,8.35-9.883,13.373-13.927a38.686,38.686,0,0,1,11.479-6.459c1.318-.472,2.715-.872,4.066-1.258h.005a33.232,33.232,0,0,0,7.919-3.012,12.584,12.584,0,0,0,4.136-4.106,38.053,38.053,0,0,0,2.663-5.228c1.574-3.526,3.2-7.171,6.732-9.426a17.869,17.869,0,0,1,10.028-2.581,63.42,63.42,0,0,1,8.763.825q.75.106,1.491.208l.808.108a49.157,49.157,0,0,0,6.372.537,17.3,17.3,0,0,0,6.718-1.2,35.4,35.4,0,0,0,5.766-3.281,35.133,35.133,0,0,1,5.872-3.328,17.463,17.463,0,0,1,6.584-1.3,13.37,13.37,0,0,1,6.1,1.367,9.475,9.475,0,0,1,4.344,4.5,9.954,9.954,0,0,1-.02,8.6,21.78,21.78,0,0,1-5.561,7.066,19.2,19.2,0,0,1,8.188,3.237,9.319,9.319,0,0,1,3.892,6.972c4.1-.136,8.255-.282,12.277-.423h.01l1.322-.046c4.366-.152,8.784-.345,13.057-.531h.014c9.528-.415,19.381-.845,29.059-.845,1.836,0,3.65.016,5.391.047a23.76,23.76,0,0,1-.541-4.96c-.008-.855.025-1.784.1-2.84a2.936,2.936,0,0,1,.845-1.953,3.24,3.24,0,0,1,1.956-.849l3.574-.381,1.2-.119c2.349-.222,4.242-.326,5.956-.326a27.65,27.65,0,0,1,7.138.815,15.138,15.138,0,0,1,6.188,3.171,12.735,12.735,0,0,1,3.335,5.3,9.625,9.625,0,0,1,.275,6.26,41.228,41.228,0,0,1,8.8,4.17,24.027,24.027,0,0,1,7.655-1.246,26.618,26.618,0,0,1,8.754,1.525l.641.229a34.881,34.881,0,0,1,6.34,3.044,14.087,14.087,0,0,1,5.025,4.842c-2.52-17.081-5.519-34.322-8.914-51.243-3.4-16.936-7.284-34-11.549-50.714a190.121,190.121,0,0,0-20.782-38.1,170.9,170.9,0,0,0-12.809-15.91c-4.28-4.737-8.953-9.457-14.287-14.429-9.907-9.235-20.645-17.955-31.03-26.388-6.876-5.584-13.985-11.356-20.785-17.223-1.956,2.153-4.032,4.219-6.04,6.217l-.054.054q-.679.676-1.345,1.341l-1.031,1.036c-4.545,4.6-9.579,9.337-15.39,14.475-9.4,8.31-19.391,16.209-29.054,23.847l-.05.04c-1.659,1.312-3.375,2.668-5.06,4a404.972,404.972,0,0,0-33.019,28.924,265.356,265.356,0,0,0-28.7,33.148.6.6,0,0,1-.923,0,.406.406,0,0,1-.019-.4,113.121,113.121,0,0,1,10.844-19.7,162.857,162.857,0,0,1,14.116-17.725c10.21-11.26,21.684-21.471,32.781-31.346l.5-.449L520.1,159.4c3.115-2.774,6.3-5.577,9.385-8.287l.03-.026c8.66-7.616,17.613-15.489,26.023-23.644,5.784-5.609,10.8-10.874,15.341-16.1l1.21-1.4c.387-.453.828-1.007,1.338-1.649l0,0c2.577-3.241,6.472-8.14,10.067-8.14,1.588,0,2.981.978,4.138,2.907a5.629,5.629,0,0,1,0,5.626,44.606,44.606,0,0,1-5.114,7c6.956,3.783,13.776,7.792,20.268,11.912a19.309,19.309,0,0,1,.068-6.49l.116-.71.481-2.772a24.441,24.441,0,0,0,.458-5.973,12.265,12.265,0,0,0-2-5.9c-2.316-3.562-6.143-5.395-9.844-7.167-1.471-.7-2.991-1.432-4.381-2.255a24.846,24.846,0,0,1-6.749-5.831,47.414,47.414,0,0,1-4.794-7.569c-2.576-4.832-6.8-8.771-12.929-12.042a96.9,96.9,0,0,0-16.992-6.551l-1.406-.436a68.133,68.133,0,0,0-20.162-3.451,40.8,40.8,0,0,0-11.646,1.614,99.675,99.675,0,0,0,3.818,13.275,45.714,45.714,0,0,0,2.027,4.466c1.664,3.356,3.384,6.822,3.113,10.236a6.192,6.192,0,0,1-1.739,3.677,5.109,5.109,0,0,1-3.587,1.709,4.05,4.05,0,0,1-2.5-.895c-4.456-3.419-5.652-8.869-6.809-14.14l-.015-.068c-.1-.446-.2-.908-.3-1.359a106.782,106.782,0,0,1-2.4-17.03,89.341,89.341,0,0,1,.607-16.488l.521-4.018.126-.933c.572-4.1,1.416-8.334,3.7-11.511a.543.543,0,0,1,.436-.22.416.416,0,0,1,.422.332,35.556,35.556,0,0,1,.4,9.659c-.088,1.807-.178,3.672-.111,5.437a102.074,102.074,0,0,0,1.548,13.989,41.082,41.082,0,0,1,19.305-4.349,62.874,62.874,0,0,1,9.2.709c11.163,1.659,26.68,5.52,37.205,14.492a31.218,31.218,0,0,1,6.174,7.286c.543.872,1.041,1.785,1.522,2.669,1.316,2.418,2.678,4.918,5.049,6.638a44.874,44.874,0,0,0,7.405,4.062,38.492,38.492,0,0,1,8.593,4.983,23.712,23.712,0,0,1,5.888,7.434,25.884,25.884,0,0,1,2.7,9.1,32.86,32.86,0,0,1-.851,9.787c-.564,2.911-.315,4.072.486,7a5.688,5.688,0,0,1-2.452,5.991c4.308,2.957,8.242,5.793,12.027,8.668A210.588,210.588,0,0,1,656,171.986a186.325,186.325,0,0,1,24.374,35.433l.326.635.377.763c3.4,6.986,11.878,26.487,12.938,30.893.872,2.645,1.568,4.862,2.189,6.977,1.786,6.1,3.343,12.425,4.628,18.795l.341,1.726c.225,1.155.479,2.329.749,3.571.94,4.339,2.005,9.258,1.78,13.7,3.029,15.691,5.681,31.359,7.882,46.569a5.2,5.2,0,0,1-1.78,4.8c3.019.486,5.971,1.073,8.98,1.682l1.723.363.862.19c6.052,1.366,12.217,3.353,16.314,8.608A15.132,15.132,0,0,1,741,355.908a14.874,14.874,0,0,1-3.242,9.25,20.326,20.326,0,0,1-6.679,5.52,36.085,36.085,0,0,1-8.141,3c-1.17.293-2.307.552-3.38.769a.755.755,0,0,1-.156.017.744.744,0,0,1-.71-.564.624.624,0,0,1,.325-.732l1.2-.664,1.642-.9c4.321-2.382,8.735-5.06,11.075-9.266A9.567,9.567,0,0,0,734,354.885a11.449,11.449,0,0,0-5.9-6.586c-4.009-2.134-8.784-2.879-13.4-3.6-.635-.1-1.355-.211-2.039-.323l-2.115-.349a71.344,71.344,0,0,0-11.439-1.057,42.732,42.732,0,0,0-4.784.259,30.394,30.394,0,0,0-7.012,1.639,24.39,24.39,0,0,0-6.329,3.4l-.354.278-.366.307c-1.959,1.7-5.495,5.688-4.858,8.64.271,1.256,1.283,2.153,3.009,2.666,3.553,1.05,7.659,1.135,11.629,1.218,1.454.03,2.822.059,4.164.132l.657.04c1.56.107,3.176.176,4.74.242h.009c2.715.116,5.523.236,8.241.558a39.682,39.682,0,0,1,4.551.78,3.362,3.362,0,0,1,2.051,1.28,3.1,3.1,0,0,1,.54,2.019,4.233,4.233,0,0,1-1.043,2.472,3.894,3.894,0,0,1-2.51,1.319c-.831.09-1.747.146-2.8.17a23.637,23.637,0,0,1-6.383,2.967c-.793.278-1.613.566-2.386.872-3.178,1.258-5.841,2.295-8.38,3.261,2.467.113,4.906.319,7.25.61a.624.624,0,0,1,.588.62.606.606,0,0,1-.588.6c-4.787.486-11.089,1.158-17.381,2.038a183.831,183.831,0,0,0-26.529,5.431,171.071,171.071,0,0,0-18.71,6.647l-1.84.792-.76.332-1.074.463-.017.007,0,0a68.59,68.59,0,0,0-8.259,4.008,18.248,18.248,0,0,0-6.486,5.987,10.908,10.908,0,0,0-1.524,4.86,6.454,6.454,0,0,0,1.475,4.771c2.167,2.455,6.376,2.54,9.759,2.609.5.01,1.01.02,1.491.039l.28.013c4.28.208,8.63.313,12.93.313,3.1,0,6.245-.055,9.349-.163a297.34,297.34,0,0,0,46.442-5.242,2.6,2.6,0,0,1,.495-.049,2.384,2.384,0,0,1,2.306,2.163,1.947,1.947,0,0,1-1.6,2.228,259.383,259.383,0,0,1-27.211,4.829,240.337,240.337,0,0,1-27.563,1.767l-2.027,0a167.385,167.385,0,0,0-21.288,5.753l-1.4.467c-.739.25-1.567.5-2.443.761-4.1,1.229-9.2,2.759-11.208,6.139-1.454,2.452-1.269,4.427.551,5.871a13.376,13.376,0,0,0,5.832,2.175,42.787,42.787,0,0,0,5.908.586c7.246.271,14.661.409,22.04.409,4.318,0,8.719-.047,13.08-.14,5.97-.133,11.875-.348,17.551-.639,1.573-.083,3.209-.209,4.792-.332,2.854-.221,5.8-.45,8.668-.45,1.476,0,2.807.059,4.069.181a2.519,2.519,0,0,1,2.252,2.334,2.017,2.017,0,0,1-1.642,2.176c-5.842,1.48-12.252,1.621-18.45,1.759h-.007c-1.226.027-2.494.055-3.719.093l-.835.028c-7.085.253-14.408.382-21.766.382l-1.644,0c-6.665-.026-13.42-.163-20.077-.408l-5.913-.235-1.047-.05a25.243,25.243,0,0,1-9.164-1.829,9.361,9.361,0,0,0-.876,7.1,14.219,14.219,0,0,0,3.556,6.427c3.462,3.563,8.575,5.052,12.12,5.862.364.08.8.173,1.231.259,3.026.616,6.111,1.028,9.095,1.425,6.467.862,13.154,1.754,19.324,4.784,2.541,1.249,5.056,2.806,7.489,4.312,4.846,3,9.857,6.1,15.491,7.078a18.645,18.645,0,0,0,3.186.286,14.565,14.565,0,0,0,7.916-2.263,20.464,20.464,0,0,0,6.027-6.222l0-.005c.2-.315.436-.672.647-1.016,1.45-2.335,2.736-4.819,3.98-7.222a89.349,89.349,0,0,1,4.84-8.558,32.911,32.911,0,0,1,6-7.019c.458-.394,2.139-1.374,3.92-2.411l.009-.006a46.627,46.627,0,0,0,5.711-3.613c3.124-3.206,2.563-8.6,2.02-13.807-.327-3.139-.636-6.1-.15-8.5.957-4.706,3.875-7.45,6.964-10.354a34,34,0,0,0,5.066-5.536,9.163,9.163,0,0,0,1.608-4.155,10.184,10.184,0,0,0-.421-4.118,35.123,35.123,0,0,0-4.263-8.238c-3.376-5.375-6.866-10.93-3.834-16.88a.776.776,0,0,1,.309-.33.887.887,0,0,1,.419-.1,1.008,1.008,0,0,1,.729.3.75.75,0,0,1,.2.578,15.049,15.049,0,0,0,1.645,7.785,49.129,49.129,0,0,0,4.386,6.943,40.8,40.8,0,0,1,4.938,8.211,13.8,13.8,0,0,1,1.077,5.869,12.37,12.37,0,0,1-1.367,4.987c-1.556,3.107-4.2,5.823-7,8.7l-.123.126-.427.439c-4.744,4.892-4.28,10.159-3.788,15.736a35.4,35.4,0,0,1-.032,9.495,12.71,12.71,0,0,1-1,3.2,5.183,5.183,0,0,1,2.441,3.876c2.422,20.535,5.163,42.38,9.667,63.838l.948,4.484,1.269,5.981c3.192,15.122,6.1,29.964,6.665,45.275a179.752,179.752,0,0,1,1.415,38.915,128.067,128.067,0,0,1-5.909,29.521A115.908,115.908,0,0,1,726.6,666.932a93.383,93.383,0,0,1-19.872,22.154A79.6,79.6,0,0,1,680,703.187a61.141,61.141,0,0,1-17.69,2.681,54.576,54.576,0,0,1-11.01-1.11,45.633,45.633,0,0,1-11.96-4.391c.283,3.05.448,5.561.52,7.9a5.691,5.691,0,0,1,1.2,5.734Zm-17.426-239.6a141.2,141.2,0,0,1,3.675,17.453l0,.023c.288,1.723.585,3.5.892,5.214,1.736,9.734,3.167,19.477,4.781,31.11,2.839,20.4,4.77,40.82,5.739,60.69,1,20.585.405,41.175-.235,58.858l-.355,9.578c-.259,7.088-.522,15.326-.38,23.4a7.388,7.388,0,0,1,1.14.18c2.289.534,4.187,2.142,6.024,3.7a22.009,22.009,0,0,0,4.206,3.034,31.834,31.834,0,0,0,14.3,3.1,46.153,46.153,0,0,0,10.574-1.276,65.451,65.451,0,0,0,25.01-12.2,79.156,79.156,0,0,0,10.264-9.548,86.273,86.273,0,0,0,8.505-11.145,99.515,99.515,0,0,0,12.79-30.313,135.013,135.013,0,0,0,3.61-32.818,269.442,269.442,0,0,0-2.868-36.754c-1.576-10.988-3.852-22.8-6.96-36.108l-.361-1.537c-2.814-11.925-4.985-32.184-6.571-46.976v-.007c-1.075-10.024-1.851-17.266-2.346-17.343l-.036.008c-7.223,4.28-11.865,13.114-15.595,20.213a70.343,70.343,0,0,1-4.612,7.995c.119.672.229,1.355.335,2.015.249,1.552.507,3.156.894,4.655a111.542,111.542,0,0,0,4.821,14.4c2.448,6,5.394,11.88,8.243,17.569l0,.008c1.061,2.118,2.157,4.308,3.212,6.472a189.508,189.508,0,0,1,8.583,19.707,3.95,3.95,0,0,0-.7.947A8.7,8.7,0,0,1,718,551.624a3.815,3.815,0,0,1-2.429.779,17.2,17.2,0,0,1-3.623-.6c-.336-.078-.717-.166-1.12-.255l0-.01a176.763,176.763,0,0,0-7.517-18.261c-.891-1.954-1.812-3.972-2.693-5.969l-.861-1.958-.851-1.96a113.412,113.412,0,0,1-7.228-21.15,72.375,72.375,0,0,1-1.47-14.3,19.225,19.225,0,0,1-9.62,4.25,17.318,17.318,0,0,1-2.574.192,23.523,23.523,0,0,1-9.747-2.385,79.109,79.109,0,0,1-8.96-5.054l-.043-.027c-.492-.306-1-.623-1.494-.927l-1.54-.942c-4.064-2.472-8.45-4.99-13.453-6.237a70.409,70.409,0,0,0-11.3-1.553h-.017c-1.891-.156-3.847-.317-5.758-.556l-.111-.015-.019,0c-.631-.083-1.285-.17-1.931-.272Zm-25.519-85.089-.257,1.3a31.423,31.423,0,0,0-.653,4.6,37.868,37.868,0,0,0,1.33,11.95,41.711,41.711,0,0,0,4.61,10.98,37.7,37.7,0,0,0,3.148,4.18,32.6,32.6,0,0,1,3.532,4.84,3.146,3.146,0,0,1,.359,1.04c.761-.315,1.436-.564,2.061-.761a150.767,150.767,0,0,1,17.06-4.359l-.917-.062-.591-.047c-7.57-.64-12.489-2.56-15.039-5.868a9.584,9.584,0,0,1-1.8-3.986,14.628,14.628,0,0,1,.035-5.4c.939-5.369,4.693-9.843,11.479-13.676l.671-.373c.314-.175.61-.33.879-.46-2.289-.387-4.272-.814-6.371-1.266-2.362-.509-4.8-1.035-7.948-1.563A77.346,77.346,0,0,0,598.115,389.318Zm-76.19-53.051c-1.221.574-2.433,1.124-3.605,1.655l-.008,0c-1.6.728-3.119,1.415-4.547,2.111-.109.058-.22.112-.337.168l-.007,0c-.081.039-.164.079-.246.12,2.8-.476,5.668-.93,8.51-1.352a11.79,11.79,0,0,1,.24-2.71h0Zm112.149-9.955a4.727,4.727,0,0,0-2.544,1.014l-.159.16a4.451,4.451,0,0,0-1.172,2.829l.143,1.063a4.015,4.015,0,0,0,1.029,1.765l.809.626a4.016,4.016,0,0,0,1.75.537l.269.009h.809a4.845,4.845,0,0,0,2.435-1.013l.159-.16a4.615,4.615,0,0,0,1.172-2.595v-.233l-.143-1.064a3.993,3.993,0,0,0-.85-1.574l-.178-.191-.809-.626a3.991,3.991,0,0,0-1.751-.536l-.268-.01H634.2Zm-22.756,6.47a13.079,13.079,0,0,1,4.538.814,3.074,3.074,0,0,0,1.07.189,4.246,4.246,0,0,0,3.851-2.983,3.758,3.758,0,0,0-.4-3.016,4.663,4.663,0,0,0-2.39-1.9,18.277,18.277,0,0,0-6.343-1.066,27.432,27.432,0,0,0-5,.49,3.4,3.4,0,0,0-2.243,1.611,4.3,4.3,0,0,0-.55,3.308,3.776,3.776,0,0,0,1.515,2.156,4.358,4.358,0,0,0,2.472.725,5.157,5.157,0,0,0,.726-.052l.207-.034A14.171,14.171,0,0,1,611.318,332.781ZM89.826,701.156a17.659,17.659,0,0,1-2.169-.126l-.375-.051c-1.567.109-3.149.165-4.7.165a62.185,62.185,0,0,1-9.688-.743,51.523,51.523,0,0,1-9.282-2.339,36.647,36.647,0,0,1-15.441-10.125,4.5,4.5,0,0,1-2.594.816,5.173,5.173,0,0,1-3.2-1.173,54.808,54.808,0,0,1-12.388-14.269,146.213,146.213,0,0,1-8.811-16.939,204.237,204.237,0,0,1-12.521-35.99,287.226,287.226,0,0,1-6.567-37.495A367.706,367.706,0,0,1,.006,544.864,619.138,619.138,0,0,1,17.17,398.955,677.545,677.545,0,0,1,66.595,260.547c5.521-11.394,11.255-22.508,17.042-33.034,6.095-11.085,12.438-21.863,18.853-32.033A263.866,263.866,0,0,1,124.107,165.6c4.061-4.8,8.27-9.337,12.512-13.475a165.511,165.511,0,0,1,13.918-12.162A189.673,189.673,0,0,1,168.072,127.9c-4.863-2.41-5.782-8.96-5.952-11.665-.546-8.74.135-21.078,6.478-30.219a50.775,50.775,0,0,1,16.384-14.575,82.035,82.035,0,0,1,20.484-8.306,108.98,108.98,0,0,1,22.009-3.325c.5-.025,1.025-.038,1.6-.038,1.161,0,2.349.052,3.5.1h.028c1.149.05,2.334.1,3.491.1a27.062,27.062,0,0,0,2.94-.143c3.5-.381,5.577-2.608,7.3-4.959,1.32-1.8,2.527-3.645,3.7-5.428,3.237-4.941,6.294-9.606,11.433-13.191,6.028-4.2,14.018-6.52,22.5-6.52.918,0,1.847.028,2.76.083a53.41,53.41,0,0,1,14.6,3.1A107.576,107.576,0,0,1,315.006,39c7.7,3.957,15.377,8.409,23.478,13.612,1.4-3.275,2.723-6.6,3.935-9.874a193.417,193.417,0,0,0,6.108-19.656c.47-1.859.784-3.844,1.117-5.946.86-5.432,1.75-11.049,5.459-14.7A8.674,8.674,0,0,1,361.255,0a9.152,9.152,0,0,1,5.227,1.606,7.621,7.621,0,0,1,3.105,4.652c.077.345.129.682.17.967a14.791,14.791,0,0,1,.418,4.01,6.3,6.3,0,0,1-.1,1.427,29.759,29.759,0,0,1-1.061,4.9c-1.065,3.668-2.308,7.371-3.7,11.006a124.043,124.043,0,0,1-9.938,20.52,107.233,107.233,0,0,1-12.22,16.3,122.39,122.39,0,0,1-14.911,13.8c1.537,1.268,3.072,2.6,4.556,3.879l.006.005q.746.645,1.49,1.286c9.327,8.027,18.832,16.776,28.254,26.006,16.691,16.356,32.716,32.726,47.631,48.657,6.647,7.1,13.841,14.977,22.641,24.8l.245.281.265.316c.349.422.751.93,1.177,1.468l.005.006c2.612,3.3,6.56,8.29,9.843,8.29a2.992,2.992,0,0,0,.889-.132c1.525-.475,3.109-2.321,4.382-3.8l.007-.009c.388-.452.754-.878,1.075-1.213l2.509-2.615c1.009-1.059,1.773-1.875,2.477-2.646,14.821-16.238,28.741-33.045,41.375-49.955,6.314-8.45,12.484-17.155,18.34-25.875,3.021-4.5,6.022-9.094,8.918-13.657.595-.937,1.175-1.9,1.735-2.84l0-.007c2.083-3.474,4.236-7.067,7.511-9.68a4.413,4.413,0,0,1,2.763-1.011,3.825,3.825,0,0,1,2.969,1.371,4.063,4.063,0,0,1,.77,3.424c-.973,5.052-3.983,9.486-6.894,13.775l-.009.014c-.692,1.02-1.407,2.074-2.074,3.107-3.426,5.316-6.976,10.645-10.552,15.839-6.761,9.824-14.037,19.769-21.627,29.558-6.113,7.886-12.677,15.847-20.066,24.34l-1.887,2.159c-1.685,1.921-3.385,3.895-5.03,5.8a255.514,255.514,0,0,1-17.888,19.374c-3.033,2.857-6.3,4.305-9.72,4.305a14,14,0,0,1-6.357-1.629,23.817,23.817,0,0,1-5.988-4.5c-5.6-5.62-11.013-11.637-16.251-17.456l0-.005c-2.682-2.979-5.455-6.06-8.214-9.045-16.609-17.968-33.208-35.588-49.338-52.37l-5.462-5.69c-5.711-5.961-12.42-13.016-18.888-20.149l-.8-.887c-1.19-1.339-2.347-2.692-3.572-4.124a124.586,124.586,0,0,0-9.435-10.234A36.717,36.717,0,0,0,308.813,70.2a.622.622,0,0,1-.413-.708.586.586,0,0,1,.591-.481.811.811,0,0,1,.145.014c7.06,1.306,12.656,5.107,16.743,8.274a198.084,198.084,0,0,0,11.952-23.2l-2.234-.969a220.4,220.4,0,0,0-23.277-8.839,83.686,83.686,0,0,0-24.172-4.031c-1.251,0-2.5.04-3.711.119A33.145,33.145,0,0,0,274.1,42.732a24.226,24.226,0,0,0-8.732,5.909,45.354,45.354,0,0,0-5.8,8.7,55.22,55.22,0,0,1-4.651,7.356c-4.367,5.512-10.172,8.309-17.748,8.552l-3.537.107a66.037,66.037,0,0,0-12.1,1.241,114.786,114.786,0,0,0-16.851,4.927,69.6,69.6,0,0,0-15.5,8.147c-2.379,1.7-6.654,5.2-8.559,9.477-1.736,3.891-2.119,8.395-2.259,11.884a20.7,20.7,0,0,0,.1,2.362,12.666,12.666,0,0,1-.079,3.935c.018-.069.035-.1.047-.1s.032.079.037.234a7.191,7.191,0,0,1,2.632,5.1,290.032,290.032,0,0,1,28.89-12.991C221.2,103.2,232.783,99.714,243.629,96.6a208.588,208.588,0,0,1,22.413-4.675c3.805-.649,7.74-1.32,11.579-2.09a1.439,1.439,0,0,1,.282-.029,1.075,1.075,0,0,1,1.079.9,1.137,1.137,0,0,1-.764,1.3c-5.147,1.977-10.3,4.146-15.287,6.244l-.009,0c-6.522,2.744-13.265,5.582-20.051,8.014-13.023,4.667-24.628,9.278-35.477,14.1-25.833,11.476-46.072,24.531-61.872,39.912a205.7,205.7,0,0,0-23.345,27.518c-7.612,10.572-14.516,21.753-19.68,30.312-6.148,10.191-12.118,20.821-17.744,31.6-5.5,10.538-10.827,21.506-15.828,32.6A667.569,667.569,0,0,0,14.148,487.854c-1.157,11.831-1.939,23.617-2.325,35.033-.4,11.846-.386,23.625.044,35.011.938,24.9,4.15,46.339,9.82,65.531A180.272,180.272,0,0,0,33.195,653c2.25,4.493,4.894,8.832,7.45,13.029A147.944,147.944,0,0,1,49.52,682.07a5.418,5.418,0,0,1,.5,2.385,34.03,34.03,0,0,0,11.841,6.666,43.16,43.16,0,0,0,13.331,1.971,65.769,65.769,0,0,0,11.915-1.172,99.273,99.273,0,0,0,11.949-3.054,174.482,174.482,0,0,0,22.09-8.988c25.979-12.423,49.525-24.417,71.982-36.667,24.593-13.416,47.989-27.251,69.537-41.122,21.2-13.648,42.62-28.5,65.478-45.411,19.518-14.438,40.117-30.41,62.972-48.829a101.949,101.949,0,0,1-8.5-10.35A79.71,79.71,0,0,1,371,474.557a72.078,72.078,0,0,1-3.083-14.759,79.384,79.384,0,0,1-.1-15.081l.25-2.83c.819-9.192,1.794-18.947,3.89-28.28a.2.2,0,0,1,.211-.17.257.257,0,0,1,.239.17c2.617,8.376,4.132,17.188,5.6,25.709v.006h0c1.663,9.672,3.382,19.674,6.721,29.065a69.885,69.885,0,0,0,11.151,19.85,57.264,57.264,0,0,0,6.839,6.92,21.624,21.624,0,0,1,.71-3.26l.262-.848a17.757,17.757,0,0,1,1.288-3.183c-.836-.243-1.6-.492-2.319-.761a.792.792,0,0,1-.5-.787.6.6,0,0,1,.5-.562,34.408,34.408,0,0,1,6.131-.789,4.354,4.354,0,0,1,.666-.05c.1,0,.2,0,.3.009.653-.02,1.32-.03,2.04-.03,1.872,0,3.767.067,5.6.133h.019c1.325.047,2.691.1,4,.117,6.269.1,12.943.214,19.559.509,3.137.136,6.3.382,9.651.643,5.015.391,10.2.795,15.274.795a60.5,60.5,0,0,0,13.926-1.409,61.19,61.19,0,0,0,16.383-6.9,131.577,131.577,0,0,0,14.725-10.175c6.686-5.231,11.957-11.184,17.538-17.486.911-1.029,1.852-2.091,2.8-3.153-.549.086-.991.151-1.389.206l-4.185.573a56.071,56.071,0,0,1-7.3.592c-3.6,0-6.365-.612-8.446-1.872a1.943,1.943,0,0,1-.983-1.9,2.255,2.255,0,0,1,1.473-1.876,15.371,15.371,0,0,1,5.365-.787c1.278,0,2.586.082,3.851.162l.03,0h.006c1.25.079,2.543.16,3.767.16.4,0,.771-.008,1.13-.026a67.723,67.723,0,0,0,10.732-1.291c1.19-.246,2.35-.531,3.449-.85a24.2,24.2,0,0,0,7.942-4.048,15.213,15.213,0,0,0,5.248-6.771,9.288,9.288,0,0,0,.431-4.5,11.268,11.268,0,0,0-2.08-4.828.413.413,0,0,1-.068-.412.578.578,0,0,1,.437-.319.6.6,0,0,1,.109-.01.5.5,0,0,1,.332.121,10.985,10.985,0,0,1,4.078,9.333,15.987,15.987,0,0,1-2.3,7.28,17.774,17.774,0,0,1-5.3,5.677,28.977,28.977,0,0,1-8.119,3.67,3.484,3.484,0,0,1-.011,3.429,69.45,69.45,0,0,1-10.75,14,135.2,135.2,0,0,1-13.211,11.8,122.949,122.949,0,0,1-14.653,10.15,71.573,71.573,0,0,1-16.3,7.12,54.776,54.776,0,0,1-14.96,1.843,167.29,167.29,0,0,1-18.042-1.318h-.006c-2.524-.276-5.134-.562-7.653-.785-6.737-.592-13.773-1.315-21.51-2.21-1.479-.169-2.959-.305-4.526-.449l-1.405-.13a52.623,52.623,0,0,1,3.85,6.132c.2.354.383.684.551.978a10.058,10.058,0,0,1,.528,8.893,9.886,9.886,0,0,1-6.518,5.846,8.291,8.291,0,0,1-1.98.3,9.438,9.438,0,0,1-3.047,3.493,7.612,7.612,0,0,1-4.3,1.425,6.253,6.253,0,0,1-2.034-.338,24.1,24.1,0,0,1-4.649-2.2c-11.362,9.98-23.394,19.98-35.762,29.722-11.877,9.356-24.4,18.736-37.208,27.878-23.485,16.755-47.618,32.818-71.728,47.744C229.6,634.793,204.439,649.2,179.4,662.4c-12.116,6.386-23.431,12.123-34.592,17.537L134.8,684.759c-11.4,5.488-22.6,10.684-34.171,13.938a64.776,64.776,0,0,1-7.154,1.565,2.936,2.936,0,0,0-.026.633A27.635,27.635,0,0,1,89.826,701.156Zm-25.2-155.424a.388.388,0,0,1-.29-.134.405.405,0,0,1-.087-.33,19.649,19.649,0,0,1,5.14-10.647,37.8,37.8,0,0,1,9.58-7.272,211.017,211.017,0,0,1,22.816-10.6c2.338-.975,4.752-1.982,7.111-3l1.364-.59c17.881-7.8,37.5-16.028,61.75-25.9a4.377,4.377,0,0,1-.335-1.6l-.059.016c-.3-3.083.8-5.957,1.87-8.737.258-.67.523-1.361.768-2.052l3.617-10.2c1.907-5.376,3.685-10.887,5.4-16.216.457-1.416.929-2.878,1.4-4.314,1.85-5.695,3.748-11.483,5.583-17.081l.112-.341.3-.9,1.036-3.161c.548-1.672,1.036-3.4,1.553-5.219,1.333-4.706,2.71-9.57,5.173-13.5a.731.731,0,0,1,.636-.34.853.853,0,0,1,.644.284.587.587,0,0,1,.13.494c.076,4.836-1.319,9.908-2.667,14.813-.533,1.937-1.036,3.767-1.455,5.589l-.68,2.962c-1.36,5.921-2.766,12.043-4.175,18.1l-1.468,6.289c-1.112,4.769-2.392,10.312-3.507,15.76-.328,1.6-.583,3.374-.854,5.251v.008a65.344,65.344,0,0,1-1.861,9.568c10.029-4.056,20.235-8.156,30.1-12.121l.04-.016.511-.205c6.981-2.8,14.2-5.7,21.291-8.563,14.912-6.014,30.123-12.011,44.832-17.809l.016-.006.089-.035c6.285-2.478,12.785-5.04,19.172-7.569,6.754-2.671,13.6-5.5,20.218-8.239l.006,0c14.316-5.919,29.119-12.04,43.958-16.959a4.425,4.425,0,0,1,1.4-.234c2.408,0,4.128,2.089,4.582,4.153a4.7,4.7,0,0,1-.188,2.8,3.975,3.975,0,0,1-2.072,2.1c-15.156,7.029-31.154,13.1-46.626,18.97-7.03,2.668-14.3,5.425-21.375,8.231l-32.691,12.978c-27.194,10.79-58.825,23.3-90.1,35.151-5.549,2.1-11.185,4.258-16.636,6.343l-.01,0-.008,0c-14.708,5.624-29.917,11.44-44.987,16.83-3.726,1.332-7.526,2.658-11.2,3.94l-.009,0c-6.042,2.109-12.29,4.289-18.381,6.557a49.994,49.994,0,0,0-12,6.05,25.248,25.248,0,0,0-4.853,4.514,19.27,19.27,0,0,0-3.273,5.855A.361.361,0,0,1,64.622,545.732ZM183.794,376.739a3.055,3.055,0,0,1-2.949-1.867c-2.936-6.838-3.452-14.5-3.951-21.914-.188-2.8-.383-5.692-.707-8.479-1.218-10.446-2.907-21.082-5.02-31.613-3.526-17.574-8.612-36.393-16.007-59.224l-.7-2.165a1.1,1.1,0,0,1,.124-1.055,1.574,1.574,0,0,1,1.266-.638,1.158,1.158,0,0,1,1.077.652,286.631,286.631,0,0,1,12.555,29.575c3.505,9.694,6.693,20.026,9.475,30.708,2.626,10.09,4.842,20.272,6.586,30.262l.583,3.4.331,1.844q.158.866.321,1.741l.012.064a125.006,125.006,0,0,1,1.946,13.078,37.4,37.4,0,0,1-.949,12.859A4.157,4.157,0,0,1,183.794,376.739Zm32.658-85.513a3.014,3.014,0,0,1-2.816-1.647c-3.972-7.94-6.206-16.066-8.571-24.67l-.049-.178q-.247-.9-.5-1.8c-2.414-8.741-4.968-17.59-7.439-26.148l-.012-.041c-1.637-5.667-3.266-11.441-4.842-17.024l-.01-.034c-.844-2.993-1.717-6.084-2.58-9.123-.484-1.7-1-3.411-1.537-5.216l0-.011c-2.133-7.118-4.339-14.478-4.78-21.536a.936.936,0,0,1,.237-.72,1.081,1.081,0,0,1,.792-.315,1.174,1.174,0,0,1,.98.492c4.157,6.092,7.034,14.079,9.573,21.127.413,1.147.839,2.33,1.267,3.492l.3.806c3.459,9.3,6.428,17.714,9.075,25.727,1.092,3.307,2.27,6.706,3.408,9.993,4.9,14.133,9.957,28.746,11.065,43.453a2.853,2.853,0,0,1-.769,2.206A3.852,3.852,0,0,1,216.452,291.226Zm202.19-46.221a5.112,5.112,0,0,1-1.738-.325,134.118,134.118,0,0,1-18.578-8.429,159.42,159.42,0,0,1-17.094-10.879A231.187,231.187,0,0,1,350.78,198.4c-10.492-10.887-19.79-22.3-27.5-32.029-4.7-5.934-8.569-10.883-12.163-15.576l-2.4-3.146c-1.333-1.759-2.772-3.55-4.164-5.282-3.939-4.9-8.011-9.972-10.722-15.491a.572.572,0,0,1,.043-.549.482.482,0,0,1,.4-.246.46.46,0,0,1,.264.089c4.814,3.342,9,7.86,13.052,12.23l.005.005c1.36,1.468,2.767,2.986,4.157,4.412,5.443,5.586,10.973,11.388,16.437,17.243,3.269,3.5,6.571,7.09,9.765,10.557l.011.012c5.65,6.134,11.493,12.477,17.359,18.6a238.6,238.6,0,0,0,29.527,26.644,149.945,149.945,0,0,0,16.62,10.8,120.912,120.912,0,0,0,18.126,8.241,5.036,5.036,0,0,1,2.894,2.486,5.652,5.652,0,0,1,.476,3.476,5.483,5.483,0,0,1-1.422,2.889A3.983,3.983,0,0,1,418.642,245.005Z" transform="translate(30 -12.351)"/></g><g transform="translate(225 0)"><g><g id="head_Dreads_2" data-name="head/Dreads 2"><path id="_Skin" data-name="âœ‹ Skin" d="M185.625,0c56.781,0,115.511,44.012,136.324,72.1C346.015,104.572,365,260.469,356.094,313.368S302.949,423.924,226.15,423.924s-123.536-9.459-125.41-23.2-50.654-90.219-50.654-90.219S.2,296.473,0,262.954,26.736,217.24,26.736,217.24s-9.6-132.279,14.58-166.718S128.844,0,185.625,0Z" transform="translate(56.417 75.26)" fill="#d08b5b"/><path id="_Ink" data-name="ðŸ– Ink" d="M318.621,519.105a165.932,165.932,0,0,1-28.257-2.44A87.867,87.867,0,0,1,279,513.925a73.405,73.405,0,0,1-11.027-4.444,49.661,49.661,0,0,1-18.057-14.736.969.969,0,0,1-.126-1.048,1.483,1.483,0,0,1,1.281-.731,1.223,1.223,0,0,1,.514.108,141.952,141.952,0,0,0,30.844,10.109,159.742,159.742,0,0,0,32.282,3.236,176.2,176.2,0,0,0,23.324-1.574,135.132,135.132,0,0,0,39.631-11.479c8-3.758,15.182-8.906,22.125-13.884,2.206-1.582,4.486-3.216,6.765-4.787a80.57,80.57,0,0,1,5.82-7.1l3.309-3.47c2.365-2.492,4.863-5.2,7.11-8.1a111.1,111.1,0,0,0,9.259-13.988,101.087,101.087,0,0,0,6.941-15.262c6.79-19.11,5.506-39.775,4.264-59.759l0-.025c-.083-1.339-.169-2.724-.251-4.081l-.111-1.876c-1.313-22.641-3.484-45.533-6.45-68.04-1.225-9.3-2.613-18.77-4.127-28.163a105.859,105.859,0,0,0-7.9-11.314,14.7,14.7,0,0,1,0,6.909,16.232,16.232,0,0,1-2.927,6.284,9.823,9.823,0,0,1-7.685,4.2,9.987,9.987,0,0,1-5.177-1.568,30.333,30.333,0,0,1-7.2-9.262,88.055,88.055,0,0,1-4.508-10.768c-2.2-5.977-4.479-12.156-8.779-17.527-2.33-3.6-7.978-8.18-16.787-13.613a306.017,306.017,0,0,0-28.767-15.287c-20.669-9.781-43.125-18.414-53.4-20.526a35.582,35.582,0,0,0,4.471,4.978c2.628,2.583,5.345,5.255,6.218,8.775a26.571,26.571,0,0,1,7.01,8.824,9.175,9.175,0,0,1,.5,6.947,8.312,8.312,0,0,1-4.077,4.349,15.219,15.219,0,0,1-7.032,1.565,24.258,24.258,0,0,1-13.57-4.483,29.459,29.459,0,0,1-6.339-5.992,35.946,35.946,0,0,1-5.063-8.835A158.42,158.42,0,0,0,275,229.7a51.288,51.288,0,0,1,2.473,13.7c.2,4.257-.077,10.058-2.506,13.519a6.212,6.212,0,0,1-5.33,2.81,13.316,13.316,0,0,1-5.64-1.53,11.534,11.534,0,0,1-3.195.468,10.263,10.263,0,0,1-4.561-1.064,12.156,12.156,0,0,1-3.694-2.851,16.883,16.883,0,0,1-3.992-9.016c-2.433,7.312-2.924,16.572-3.4,25.527a156.24,156.24,0,0,1-1.746,18.84,44.274,44.274,0,0,1-2.2,8.174,23.8,23.8,0,0,1-3.8,6.685,5.246,5.246,0,0,1-3.834,1.684,6.555,6.555,0,0,1-3.723-1.262,7.861,7.861,0,0,1-2.625-3.2,11.026,11.026,0,0,1-7.784-7.072c-1.337-3.329-1.721-7.292-2.093-11.125-.152-1.569-.3-3.051-.5-4.465-2.659,9.7-5.508,18.514-8.262,27.041-3.364,10.412-6.541,20.246-9.035,30.617a173.633,173.633,0,0,0-4.85,33.553,9.321,9.321,0,0,1,1.77,4.368,6.506,6.506,0,0,1-.706,3.726c-1.471,2.832-4.967,4.735-8.7,4.735a9.474,9.474,0,0,1-7.459-3.429,22.926,22.926,0,0,1-3.527-8.08,32.474,32.474,0,0,1-.691-8.786c.269-6.017,1.779-12.269,3.24-18.316.979-4.051,1.9-7.876,2.448-11.539a10.323,10.323,0,0,1-7.4-3.851c-1.066,4.179-.621,9.531-.229,14.253v.007q.064.771.124,1.516c-1.024,4-2.587,7.056-4.646,9.078a9.033,9.033,0,0,1-6.5,2.752,11.483,11.483,0,0,1-5.184-1.33,17.722,17.722,0,0,1-4.8-3.65,23.792,23.792,0,0,1-6.382-17.312c-.986,5.375-1.719,10.775-2.176,16.048a47.313,47.313,0,0,1,9.481,17.351,4.77,4.77,0,0,1-.676,4.372,6.493,6.493,0,0,1-5.094,2.407,5.957,5.957,0,0,1-1.093-.1,11.556,11.556,0,0,1-3.69,5.553,9.354,9.354,0,0,1-5.887,2.3,7.829,7.829,0,0,1-5.955-2.9,20.805,20.805,0,0,1-5.2-9.612,57.2,57.2,0,0,1-1.506-11.392,4.046,4.046,0,0,1-1.123-3.082,7.1,7.1,0,0,1,.818-3.02c-.106-1.85-.226-3.331-.378-4.66a51.355,51.355,0,0,0-2.256,14.621c-.118,4.928.244,9.971.6,14.848.238,3.314.485,6.739.576,10.087,7.393,4.163,15.855,5.917,24.039,7.614l1.216.252a3.283,3.283,0,0,1,2.416,2.537,3.433,3.433,0,0,1-.956,3.483,137.84,137.84,0,0,1,12.107,14.243l.017.022c.629.812,1.28,1.652,1.916,2.465,6.558,8.38,12.7,17.055,16.751,22.852l3.168,4.54.4.576c4.687,6.673,10,14.236,13.533,22.271,4.108,9.343,4.888,17.335,2.384,24.431a3.2,3.2,0,0,1-2.983,2.1,2.6,2.6,0,0,1-2.328-1.413,114.857,114.857,0,0,1-5.6-12.687c-1.476-3.748-3-7.623-4.861-11.282-3.779-7.424-8.529-14.427-13.123-21.2l-.408-.6-2.768-4.1c-4.162-6.186-9.011-13.5-13.411-20.838l-2.948-4.887a109.5,109.5,0,0,1-7.552-14.342,29.268,29.268,0,0,1-6.85.8,37.631,37.631,0,0,1-15-3.336l-.089.485-.177.871a7.567,7.567,0,0,1-7.12,5.395,5.571,5.571,0,0,1-3.352-1.079,31.249,31.249,0,0,1-9.654-12.12,45.982,45.982,0,0,1-3.726-15.078,59.366,59.366,0,0,1-4.524-9.436,18.343,18.343,0,0,1-2.665,8.75,8.961,8.961,0,0,1-7.854,3.925c-.117,0-.232,0-.351,0-4.642-.381-8.093-2.164-10.259-5.3-3.186-4.613-3.5-12.141-.9-21.2a14.4,14.4,0,0,1-4.176.679,9.2,9.2,0,0,1-4.67-1.2,10.073,10.073,0,0,1-3.323-3.222c-1.971-2.974-3.072-7.407-3.1-12.482a35.075,35.075,0,0,1,2.479-13.362,8.361,8.361,0,0,1-4.592-3.173l-.827,1.451c-3.012,5.215-6.476,10.426-11.388,13.22a10.556,10.556,0,0,1-5.214,1.35,11.6,11.6,0,0,1-8.289-3.5,9.558,9.558,0,0,1-2.659-7.247c1.043-9.942,7.606-18.177,13.953-26.142,2.526-3.169,4.911-6.163,6.979-9.268a11.736,11.736,0,0,1-1.634.113,12.979,12.979,0,0,1-2.381-.225,13.928,13.928,0,0,1-6.724,1.978,9.209,9.209,0,0,1-4.966-1.421,11.854,11.854,0,0,1-3.648-3.733,20.159,20.159,0,0,1-2.886-9.333,20.453,20.453,0,0,1,1.645-9.825c3.245-8.592,8.986-16.969,18.066-26.364l-2.163,1.292a39.422,39.422,0,0,1-5.14,2.638,14.4,14.4,0,0,1-5.39,1.183,9.824,9.824,0,0,1-2.016-.206c-5.72,3.758-11.13,5.745-15.644,5.745a10.782,10.782,0,0,1-6.809-2.114A8.243,8.243,0,0,1,3.449,247.9a11.4,11.4,0,0,1,.561-5.369,17.438,17.438,0,0,1,3.324-5.686c3.512-4.124,8.976-7.414,15.8-9.515l-.01-.145a10.533,10.533,0,0,1-2.075-12.694,17.807,17.807,0,0,1-5.914.972,19.614,19.614,0,0,1-8.643-1.993A12.049,12.049,0,0,1,.82,208.095c-1.145-2.4-1.664-6.31,2.365-11.274,7.459-7.024,15.254-11.887,23.168-14.452a26.912,26.912,0,0,1-.394-7l-.518.071c-.77.111-1.542.246-2.36.389a34.654,34.654,0,0,1-5.827.688c-3.533,0-5.9-1.257-7.444-3.955a9.112,9.112,0,0,1-1.049-5.342,7.059,7.059,0,0,1,2.347-4.846,100.356,100.356,0,0,1,15.5-10.613A66.514,66.514,0,0,1,43.841,145.1c.47-1.556.923-2.983,1.385-4.36a13.887,13.887,0,0,1-4.671-.949,17.68,17.68,0,0,1-4.328-2.4,15.159,15.159,0,0,1-5.56-7.534,8.517,8.517,0,0,1,.17-5.548,10.894,10.894,0,0,1,4.418-5.061,82.853,82.853,0,0,1,15.134-6.071,58.221,58.221,0,0,1,16.031-2.29c.5,0,1,.007,1.5.02a11.454,11.454,0,0,1-3.161-5.74,12.8,12.8,0,0,1,.27-6.317,12.37,12.37,0,0,1,9.188-8.8,12.954,12.954,0,0,1-1.367-5.9,9.365,9.365,0,0,1,1.477-4.778,14.01,14.01,0,0,1,6.52-5.135,23.832,23.832,0,0,1,9.077-1.776,22.606,22.606,0,0,1,4.04.355,14.679,14.679,0,0,1,1.882-8.252,10.38,10.38,0,0,1,6.54-5.085c-.795-4.656-.136-8.276,1.959-10.758a10.3,10.3,0,0,1,4.752-3.057,20.358,20.358,0,0,1,6.354-.9,45.914,45.914,0,0,1,14.619,2.79,11.279,11.279,0,0,1-.811-9.74,13.039,13.039,0,0,1,7.914-7.643,15.967,15.967,0,0,1,3.52-.391c3.786,0,7.828,1.3,12.358,3.983a96.9,96.9,0,0,1,11.241,8.226c1.4,1.13,2.719,2.2,4.009,3.187a12.418,12.418,0,0,1-.41-9.8,12.013,12.013,0,0,1,7.026-6.393,11.668,11.668,0,0,1,4.271-.79,19.328,19.328,0,0,1,8.069,2.073,70.344,70.344,0,0,1,7.477,4.243c.491.307.955.6,1.424.885a13.171,13.171,0,0,1,5.787-4.08,20.246,20.246,0,0,1,7.054-1.2c.394,0,.794.01,1.189.03a10.221,10.221,0,0,1,2.355-3.892,9.031,9.031,0,0,1,2.832-6.452A14.84,14.84,0,0,1,225.561,15.7a11.648,11.648,0,0,1,5.079,1.092A9.5,9.5,0,0,1,234.6,20.3,34.2,34.2,0,0,1,241.758,3.8,10.131,10.131,0,0,1,249.623,0a11.746,11.746,0,0,1,4.95,1.139,14.466,14.466,0,0,1,4.259,3.04,13.692,13.692,0,0,1,2.775,4.12,11.283,11.283,0,0,1,.951,4.834,12.041,12.041,0,0,1,4.639,2.609,12.11,12.11,0,0,1,3.393,4.774c.367-.024.735-.036,1.092-.036a15.225,15.225,0,0,1,7.659,2l.575-.708a61.664,61.664,0,0,1,11.565-11.252c4.556-3.233,9.017-4.872,13.259-4.872a18.062,18.062,0,0,1,10.017,3.189,9.938,9.938,0,0,1,3.76,4.45,10.208,10.208,0,0,1,.547,5.821l-.059.292.285-1.278a1.681,1.681,0,0,1,.095-.336,16.7,16.7,0,0,1-.4,2.066l-.021.059a9.238,9.238,0,0,1-.613,1.248c-.131.233-.254.452-.375.708a24.725,24.725,0,0,1,6.782-3.392,22.647,22.647,0,0,1,6.911-1.118,15.936,15.936,0,0,1,6.5,1.278,9.237,9.237,0,0,1,4.355,3.787c1.4,2.429,2.209,6.78-1.836,13.714L345,34.454a150.149,150.149,0,0,1,14.366-4.9A56.881,56.881,0,0,1,374.3,27.289a32.393,32.393,0,0,1,9.241,1.266,26.371,26.371,0,0,1,8.489,4.309,6.853,6.853,0,0,1,2.182,6.781,11.315,11.315,0,0,1-3.4,5.4,14.837,14.837,0,0,1-5.64,3.339l1.064-.178,1.577-.271c5.193-.9,12.3-2.122,19.008-2.122,5.163,0,9.374.746,12.514,2.216a13.2,13.2,0,0,1,4.5,3.329,12.27,12.27,0,0,1,2.6,5.306,8.812,8.812,0,0,1-1.328,7.18,14.437,14.437,0,0,1-5.8,4.687h.326A69.135,69.135,0,0,1,434.1,69.958a47.844,47.844,0,0,1,13.474,5.012,8.755,8.755,0,0,1,3.328,4.086,6.647,6.647,0,0,1,.058,4.319,9.172,9.172,0,0,1-3.587,4.643,11.042,11.042,0,0,1-6.225,1.937c-.179,0-.361,0-.54-.013a11.8,11.8,0,0,1,2.434,6.071,9.072,9.072,0,0,1-1.465,6.268,48.2,48.2,0,0,1,13.443,5.461l1.132.146c.525.065,1.066.131,1.588.193l.017,0a52.876,52.876,0,0,1,11.63,2.283,15.927,15.927,0,0,1,8.94,7.254c1.616,4.252,1.552,7.687-.188,10.21-1.977,2.866-6.123,4.445-11.673,4.445a31.975,31.975,0,0,1-15.422-3.962,10.338,10.338,0,0,1,1.306,3.2l3.3.928.413.115c12.3,3.421,26.25,7.3,34.188,17.674a8.876,8.876,0,0,1,1.209,5,11.355,11.355,0,0,1-1.45,5.073,9.759,9.759,0,0,1-2.95,3.3,7.249,7.249,0,0,1-4.145,1.309,7.758,7.758,0,0,1-1.8-.216,22.436,22.436,0,0,1,10.2,9.083,14.358,14.358,0,0,1,1.741,10.07,9.286,9.286,0,0,1-3,5.128,9,9,0,0,1-5.909,2.031,14.743,14.743,0,0,1-4.866-.9,25.9,25.9,0,0,1-5.7-2.935A7.509,7.509,0,0,1,470.26,189l4.3,2.332c5.694,3.117,11.554,6.61,15.844,11.025a22.841,22.841,0,0,1,5.034,7.5,17.19,17.19,0,0,1,.9,9.224,6.82,6.82,0,0,1-3.271,4.134,10.6,10.6,0,0,1-5.213,1.185,19.408,19.408,0,0,1-8.722-2.2,227.1,227.1,0,0,1,24.8,24.767l2.1,2.5a69.453,69.453,0,0,1,6.977,9.569,25.67,25.67,0,0,1,2.433,5.459,11.984,11.984,0,0,1,.463,5.311,9.462,9.462,0,0,1-4.826,6.559,11.978,11.978,0,0,1-5.421,1.421c-3.065,0-6.025-1.45-9.05-4.435a65.633,65.633,0,0,1-7.345-9.43c-2.283-3.318-4.438-6.451-6.7-8.539a12.274,12.274,0,0,1-5.224,16.228,12.09,12.09,0,0,1-5.753,1.5,10.773,10.773,0,0,1-5.883-1.736,13.464,13.464,0,0,1-4.726-5.636,11.969,11.969,0,0,1-2.061.18,11.838,11.838,0,0,1-1.574-.105c2.406,2.55,6.251,10.628,8.945,18.788a73.155,73.155,0,0,1,3.042,12.343c.581,4.146.423,7.3-.468,9.363a4.342,4.342,0,0,1-4.268,2.853,12.5,12.5,0,0,1-5.129-1.415,85.03,85.03,0,0,1-8.97-11.456c3.329,25.612,5.827,51.863,7.427,78.024l.567,9.447c.586,9.909,1.021,19.615-.083,29.407a95.853,95.853,0,0,1-3.366,16.571,106.52,106.52,0,0,1-6.125,15.769,128.552,128.552,0,0,1-17.169,26.39c-3.476,4.18-7.35,8.492-12.12,11.709-3.743,2.522-8.1,4.179-12.321,5.781a69.733,69.733,0,0,1-11.462,9.087,116.418,116.418,0,0,1-12.767,7.054,126.974,126.974,0,0,1-22.006,8.051,167.116,167.116,0,0,1-23.034,4.369A163.276,163.276,0,0,1,318.621,519.105ZM446.613,178.239h0l.189,1.035c.173.153.34.314.5.468l.2.191c.707.167,1.415.35,2.1.542-1.032-.836-2.093-1.6-2.994-2.237ZM459.253,153l-.222.308c-.034.045-.074.1-.117.148.688.261,1.292.5,1.846.719l.918.376.324.142C461.014,154.074,460.115,153.519,459.253,153ZM310.788,26.21v0c-.3.23-.685.486-.886.617l.25-.021c.193-.017.391-.034.589-.045.355-.265.729-.541,1.112-.821l-.552.137-.5.119-.051.012a.6.6,0,0,0-.109.031Z" transform="translate(-38 -13.959)"/></g></g><g transform="translate(159 186)"><g><path d="M175.373 49.5872C175.699 49.4437 175.991 49.2049 176.203 48.8583C178.978 44.3099 179.267 38.8813 178.039 33.5637C176.563 27.172 172.899 20.9588 168.944 16.7559C163.959 11.4582 157.895 7.75374 151.246 4.94731C150.762 4.74287 150.267 4.53098 149.763 4.31514C142.964 1.40541 134.597 -2.01031 127.865 1.47064C125.161 2.86951 123.673 5.20381 123.256 7.7496C122.814 10.4534 123.597 13.4099 125.462 15.7216C128.557 19.5594 133.339 20.3533 138.087 21.0465C139.602 21.2677 141.106 21.486 142.53 21.8229C147.429 22.9821 152.604 24.4361 157.104 26.7244C166.253 31.3762 170.54 38.5898 172.747 48.2853C172.837 48.6781 173.037 48.9988 173.3 49.2406C173.575 49.4928 173.921 49.6579 174.285 49.7192C174.651 49.7808 175.032 49.7375 175.373 49.5872ZM58.3942 19.1934C55.0693 22.4329 51.1339 22.9347 47.1526 23.381C44.9405 23.6313 43.1746 23.8331 41.4369 24.2252C36.6605 25.3034 31.9393 26.9272 27.6319 29.2659C23.1292 31.7106 18.2224 34.659 14.6922 38.4361C13.8528 39.3349 13.0615 40.278 12.2691 41.2232C11.5465 42.0851 10.8505 42.9149 10.1169 43.7149C9.27449 44.6339 8.47449 45.597 7.67875 46.5576C7.1867 47.3681 7.0895 47.5675 6.99041 47.775C6.8413 48.0869 6.66786 48.4359 6.46976 48.8103C6.19845 49.323 5.88066 49.8843 5.54784 50.3932C4.9941 51.3234 4.69697 51.5796 4.44022 51.6942C4.01419 51.8839 3.61015 51.9774 3.21817 51.9268C2.85064 51.8793 2.50438 51.7028 2.16244 51.4138C0.455387 49.9715 -0.0480658 47.6046 0.00353523 45.092C0.0818393 41.2793 1.48813 37.0578 2.78452 34.4628C5.79888 28.4331 9.97938 22.1649 15.0062 17.6646C20.7422 12.5276 27.0177 8.63869 34.2256 5.95894C38.705 4.29304 43.8913 2.76391 48.7713 2.95706C52.284 3.09609 55.6373 4.14026 58.4066 6.74782C60.1072 8.34853 60.9235 10.6254 60.9235 12.9006C60.9235 15.2211 60.0757 17.5554 58.3942 19.1934ZM164.634 78.3299C166.478 78.8824 167.779 78.6212 169.441 77.7551C170.719 77.0896 171.589 76.0387 172.088 74.8117C172.599 73.5559 172.706 72.1077 172.454 70.7659C171.405 65.1948 168.042 60.2513 163.503 57.0672C159.091 53.9728 153.589 52.5435 148.048 53.7341C144.003 54.6036 138.007 58.4424 134.85 63.1243C133.504 65.1203 132.671 67.2595 132.581 69.3723C132.495 71.387 133.008 73.4183 135.676 76.096C135.935 76.177 136.208 76.2208 136.477 76.2208C137.138 76.2208 137.821 75.9439 138.274 75.5441C139.469 74.4935 140.311 73.1636 141.178 71.7329C141.641 70.9679 142.102 70.1976 142.69 69.5195C144.449 67.4927 147.002 65.7736 149.683 65.3262C152.167 64.911 154.406 65.6469 156.181 67.0355C158.256 68.6601 159.713 71.1522 160.252 73.8146C160.472 74.8933 161.036 75.8657 161.818 76.6477C162.607 77.4367 163.615 78.0237 164.634 78.3299ZM46.1749 69.1109C43.7479 67.5587 40.8928 67.0259 37.7287 68.4655C35.256 69.5899 30.9192 73.3385 27.9011 78.2662C25.8363 81.6374 24.3721 85.5922 24.6769 89.7117C24.7477 90.6684 24.3942 91.3738 23.8366 91.8954C23.3962 92.3073 22.7601 92.61 22.013 92.7047C21.3786 92.785 20.6686 92.7125 20.0913 92.5324C18.9931 92.1896 18.4119 91.4772 18.1929 90.8957C16.0797 85.2836 16.9901 79.0208 19.3585 73.3707C22.5547 65.7456 28.3592 59.3585 32.1622 57.2993C38.6698 53.7742 46.347 53.612 52.8639 57.2031C58.4114 60.2596 61.8802 65.1942 65.3301 70.2242C66.0635 71.2934 66.7914 72.3548 67.5436 73.3976C69.0513 75.487 69.2013 77.5593 68.6175 79.3363C67.9707 81.3049 66.3215 82.9663 64.2592 83.8357C62.353 84.6393 60.1407 84.7524 58.1831 83.9268C56.5293 83.2293 55.0117 81.8695 54.0513 79.5625C52.434 75.6771 49.7393 71.3904 46.1749 69.1109ZM127.748 115.98C135.872 104.601 124.366 93.898 116.814 89.3079C114.836 87.8879 116.406 83.1842 120.634 83.9112C159.031 90.5082 139.136 156.649 90.112 120.354C84.2754 115.645 91.3434 105.275 97.6342 109.307C97.9532 109.552 98.2876 109.81 98.6364 110.08C105.704 115.544 118.636 125.542 127.748 115.98ZM117.042 185.1C109.675 187.233 101.768 187.424 94.2589 185.221C87.4481 183.222 80.4549 178.823 75.4423 173.003C70.9894 167.832 68.1055 161.549 68.2187 154.842C68.2316 154.076 68.5055 153.436 68.9268 152.94C69.3804 152.406 70.014 152.039 70.6926 151.88C71.3906 151.716 72.1285 151.774 72.7568 152.059C73.3256 152.318 73.8129 152.757 74.1176 153.398C74.8879 154.41 75.6553 155.407 76.4257 156.376C82.6196 164.024 88.618 169.74 97.9319 171.79C102.985 172.903 108.032 172.409 112.663 170.712C117.62 168.895 122.102 165.7 125.613 161.612C127.2 159.765 129.074 159.011 130.905 158.998C132.982 158.983 135.034 159.948 136.579 161.49C138.099 163.006 139.116 165.065 139.209 167.219C139.29 169.11 138.673 171.085 137.032 172.848C131.626 178.652 124.621 182.904 117.042 185.1Z" transform="translate(54.00004 55.05923)" fill="#000000" fill-rule="evenodd" stroke="none"/></g></g><g transform="translate(123 338)"/><g transform="translate(47 241)"/></g></g></svg>
