<svg xmlns="http://www.w3.org/2000/svg" xmlns:xlink="http://www.w3.org/1999/xlink" version="1.1" style="enable-background:new 0 0 512 512;" xml:space="preserve" width="512" height="512"><rect id="backgroundrect" width="100%" height="100%" x="0" y="0" fill="none" stroke="none"/>
















<g class="currentLayer" style=""><title>Layer 1</title><g id="svg_1" class="" fill-opacity="1" fill="#8338ec">
	<g id="svg_2" fill="#8338ec">
		<g id="svg_3" fill="#8338ec">
			<path d="M448,245.333H234.667c-11.797,0-21.333,9.557-21.333,21.333v192c0,11.776,9.536,21.333,21.333,21.333H448     c11.797,0,21.333-9.557,21.333-21.333v-192C469.333,254.891,459.797,245.333,448,245.333z M384,416h-85.333     c-11.797,0-21.333-9.557-21.333-21.333s9.536-21.333,21.333-21.333H384c11.797,0,21.333,9.557,21.333,21.333S395.797,416,384,416     z M384,352h-85.333c-11.797,0-21.333-9.557-21.333-21.333s9.536-21.333,21.333-21.333H384c11.797,0,21.333,9.557,21.333,21.333     S395.797,352,384,352z" id="svg_4" fill="#8338ec"/>
			<path d="M490.667,32H21.333C9.536,32,0,41.557,0,53.333v128c0,11.776,9.536,21.333,21.333,21.333h469.333     c11.797,0,21.333-9.557,21.333-21.333v-128C512,41.557,502.464,32,490.667,32z M149.333,138.667h-42.667     c-11.797,0-21.333-9.557-21.333-21.333S94.869,96,106.667,96h42.667c11.797,0,21.333,9.557,21.333,21.333     S161.131,138.667,149.333,138.667z M277.333,138.667c-11.776,0-21.333-9.557-21.333-21.333S265.557,96,277.333,96     s21.333,9.557,21.333,21.333S289.109,138.667,277.333,138.667z M405.333,138.667h-64c-11.797,0-21.333-9.557-21.333-21.333     S329.536,96,341.333,96h64c11.797,0,21.333,9.557,21.333,21.333S417.131,138.667,405.333,138.667z" id="svg_5" fill="#8338ec"/>
		</g>
	</g>
</g><g id="svg_6">
</g><g id="svg_7">
</g><g id="svg_8">
</g><g id="svg_9">
</g><g id="svg_10">
</g><g id="svg_11">
</g><g id="svg_12">
</g><g id="svg_13">
</g><g id="svg_14">
</g><g id="svg_15">
</g><g id="svg_16">
</g><g id="svg_17">
</g><g id="svg_18">
</g><g id="svg_19">
</g><g id="svg_20">
</g></g></svg>
